<svg width="26" height="26" viewBox="0 0 26 26" fill="none" xmlns="http://www.w3.org/2000/svg">
<path d="M24.3137 1.68651C23.1422 0.514977 21.2426 0.514977 20.0711 1.68651L13 8.75758L5.92893 1.68651C4.7574 0.514977 2.8579 0.514906 1.68629 1.68651C0.514757 2.85805 0.514757 4.75762 1.68629 5.92915L8.75736 13.0002L1.68629 20.0713C0.514686 21.2429 0.514757 23.1424 1.68629 24.3139C2.8579 25.4855 4.75733 25.4855 5.92893 24.3139L13 17.2429L20.0711 24.3139C21.2426 25.4855 23.1422 25.4855 24.3137 24.3139C25.4853 23.1423 25.4852 21.2428 24.3137 20.0713L17.2426 13.0002L24.3137 5.92915C25.4852 4.75762 25.4853 2.85812 24.3137 1.68651Z" fill="white"/>
</svg>
